<svg width="1024" height="710" version="1.1" viewBox="-7.9288 -7.9288 403.99 280.15" xmlns="http://www.w3.org/2000/svg">
 <path d="m158.28 174.58c-6.0984 33.177-14.142 57.288-24.127 72.328-7.7795 11.589-16.302 17.384-25.582 17.384-2.4739 0-5.5246-0.74716-9.1447-2.2318v-7.9978c1.7685 0.25963 3.8437 0.39813 6.2303 0.39813 4.3294 0 7.8185-1.1997 10.473-3.5943 3.1789-2.9178 4.7697-6.1973 4.7697-9.8316 0-2.4824-1.2409-7.576-3.7113-15.281l-16.435-51.173h14.712l11.796 38.273c2.6499 8.6896 3.7552 14.756 3.3131 18.213 6.4515-17.278 10.959-36.107 13.523-56.486h14.183m-64.961 66.191h-14.976c-0.52666-25.345-1.9865-49.177-4.3726-71.501h-0.1319l-22.801 71.501h-11.402l-22.663-71.501h-0.13351c-1.6816 21.44-2.7395 45.272-3.1807 71.501h-13.654c0.88238-31.899 3.0906-61.802 6.6248-89.715h18.561l21.606 65.92h0.13258l21.738-65.92h17.76c3.889 32.691 6.1854 62.603 6.8909 89.715" fill="#00758f"/>
 <path d="m357.62 240.77h-42.546v-89.715h14.317v78.679h28.229v11.036m-106.97-17.947c-3.6242-5.848-5.4398-15.232-5.4398-28.172 0-22.591 6.8512-33.893 20.547-33.893 7.1607 0 12.416 2.7033 15.777 8.1043 3.6196 5.8508 5.4352 15.154 5.4352 27.913 0 22.771-6.8512 34.162-20.547 34.162-7.1584 0-12.416-2.7005-15.772-8.1127m53.285 20.11-16.446-8.1317c1.4645-1.2041 2.855-2.5032 4.1139-4.007 6.9828-8.231 10.478-20.414 10.478-36.543 0-29.68-11.621-44.528-34.861-44.528-11.399 0-20.283 3.7636-26.645 11.302-6.9851 8.241-10.473 20.378-10.473 36.415 0 15.77 3.0906 27.339 9.2766 34.688 5.6362 6.6424 14.16 9.9683 25.571 9.9683 4.2572 0 8.1632-0.52551 11.714-1.5768l21.417 12.497 5.8394-10.084m-80.04-27.03c0 7.6085-2.788 13.855-8.3457 18.742-5.5622 4.8656-13.035 7.3048-22.392 7.3048-8.7522 0-17.234-2.8075-25.45-8.3767l3.8437-7.7064c7.0706 3.5438 13.469 5.3135 19.214 5.3135 5.389 0 9.6069-1.2025 12.658-3.5783 3.0444-2.393 4.8693-5.7304 4.8693-9.9634 0-5.3269-3.7051-9.8803-10.503-13.7-6.276-3.4532-18.819-10.663-18.819-10.663-6.7957-4.9705-10.203-10.304-10.203-19.091 0-7.2676 2.5409-13.142 7.6157-17.611 5.0864-4.4783 11.649-6.7175 19.685-6.7175 8.3064 0 15.86 2.2227 22.662 6.6522l-3.4556 7.6993c-5.8209-2.4745-11.561-3.7166-17.22-3.7166-4.5921 0-8.1308 1.1054-10.598 3.3293-2.4808 2.2046-4.0146 5.0418-4.0146 8.4997 0 5.3133 3.7859 9.922 10.776 13.816 6.3545 3.4551 19.204 10.804 19.204 10.804 6.9898 4.9614 10.473 10.251 10.473 18.964" fill="#f29111"/>
 <path d="m367.83 240.76h2.3723v-9.1278h3.1045v-1.8644h-8.7014v1.8644h3.2246v9.1278zm18.052 0h2.236v-10.992h-3.3632l-2.7372 7.4927-2.9798-7.4927h-3.2408v10.992h2.1158v-8.3658h0.12013l3.1207 8.3658h1.6123l3.116-8.3658v8.3658" fill="#f29111"/>
 <path d="m238.65 0.0015978c-3.783-0.0564-7.0813 1.3723-8.7852 5.5586-2.9197 7.0501 4.3247 13.984 6.8125 17.563 1.8364 2.4898 4.2166 5.313 5.5078 8.127 0.75767 1.8436 0.97638 3.7983 1.7363 5.7461 1.7278 4.7688 3.3458 10.082 5.6211 14.529 1.185 2.2767 2.4812 4.6632 3.9941 6.7129 0.87312 1.1997 2.3813 1.7343 2.707 3.6914-1.5084 2.1655-1.6263 5.4188-2.4902 8.1308-3.8899 12.25-2.3793 27.424 3.1367 36.42 1.7255 2.7096 5.8398 8.6724 11.354 6.3906 4.8646-1.9478 3.7831-8.1264 5.1875-13.543 0.32336-1.31 0.10711-2.1691 0.7539-3.0352v0.21875c1.513 3.0308 3.0311 5.9507 4.4356 8.9961 3.3563 5.3061 9.1874 10.836 14.057 14.518 2.5871 1.9587 4.6436 5.3138 7.8867 6.5098v-0.32813h-0.21289c-0.65139-0.9727-1.622-1.4086-2.4883-2.1641-1.945-1.9524-4.1012-4.3392-5.6211-6.5059-4.539-6.0678-8.544-12.792-12.104-19.729-1.7347-3.3682-3.2456-7.0499-4.6523-10.408-0.6468-1.2947-0.64713-3.2517-1.7305-3.9004-1.6262 2.3821-3.9983 4.4436-5.1856 7.3613-2.0558 4.6666-2.2709 10.41-3.0332 16.375-0.42964 0.11324-0.21256 1e-3 -0.42969 0.21679-3.4556-0.86664-4.6448-4.4435-5.9453-7.4687-3.2431-7.7064-3.7884-20.063-0.97266-28.953 0.75303-2.2721 4.0059-9.4259 2.7031-11.594-0.65368-2.0682-2.8147-3.25-4.002-4.8828-1.4021-2.059-2.9235-4.6562-3.8867-6.9375-2.5963-6.0681-3.9012-12.791-6.7031-18.859-1.2982-2.8233-3.5745-5.7494-5.4062-8.3457-2.0581-2.9275-4.3254-4.9864-5.9492-8.4512-0.53592-1.1951-1.2933-3.1483-0.43164-4.4453 0.21249-0.86852 0.65137-1.1944 1.5176-1.4121 1.3975-1.1927 5.4026 0.32185 6.8047 0.97266 4.0031 1.6212 7.3541 3.1459 10.701 5.418 1.5153 1.0862 3.1374 3.1468 5.0801 3.6934h2.2754c3.4579 0.75272 7.3522 0.20976 10.598 1.1894 5.7262 1.8413 10.914 4.551 15.566 7.4785 14.157 8.9979 25.832 21.793 33.721 37.074 1.3005 2.4898 1.8459 4.767 3.0332 7.3633 2.2706 5.3223 5.0856 10.743 7.3516 15.941 2.2683 5.0953 4.4339 10.293 7.6816 14.527 1.6169 2.2725 8.1057 3.465 11.025 4.6582 2.1575 0.97251 5.5137 1.8406 7.4609 3.0312 3.675 2.2725 7.3437 4.8778 10.809 7.375 1.7255 1.3009 7.1313 4.0084 7.457 6.1797l2e-3 2e-3c-8.6529-0.217-15.355 0.64846-20.975 3.0352-1.6215 0.64965-4.2138 0.64908-4.4355 2.709 0.87083 0.86574 0.97604 2.275 1.7383 3.4727 1.2935 2.1678 3.5591 5.0897 5.6172 6.6113 2.2706 1.7352 4.5404 3.4632 6.9219 4.9805 4.2132 2.6127 8.9718 4.1238 13.074 6.7266 2.3861 1.5154 4.7564 3.4654 7.1426 5.0957 1.185 0.86667 1.9352 2.2781 3.4551 2.8144v-0.33007c-0.76229-0.97275-0.97354-2.3805-1.7266-3.4707-1.0787-1.0756-2.1628-2.0574-3.2461-3.1367-3.1368-4.2268-7.0339-7.9099-11.24-10.945-3.4625-2.3911-11.034-5.6439-12.434-9.6426 0 0-0.11445-0.11393-0.2207-0.2207 2.3792-0.22003 5.1965-1.0886 7.4648-1.7461 3.6704-0.97275 7.0211-0.75382 10.805-1.7266 1.7324-0.43681 3.4622-0.98075 5.1992-1.5137v-0.98242c-1.9565-1.9468-3.3547-4.5535-5.4082-6.3945-5.5091-4.7678-11.571-9.4256-17.84-13.334-3.3563-2.1685-7.6812-3.5707-11.25-5.418-1.2912-0.6515-3.451-0.97233-4.2109-2.0625-1.9473-2.3839-3.0334-5.5229-4.4355-8.3457-3.1322-5.9553-6.1634-12.566-8.8613-18.863-1.9449-4.2245-3.1345-8.4486-5.5137-12.354-11.141-18.431-23.245-29.591-41.84-40.541-4.0007-2.279-8.7568-3.2526-13.834-4.4453-2.7072-0.11349-5.4068-0.32511-8.1094-0.43164-1.7325-0.76204-3.4659-2.8238-4.9766-3.7989-3.8532-2.4376-11.504-6.654-17.809-6.748zm26.672 26.795c-1.834 0-3.1285 0.22297-4.4336 0.54492v0.2168h0.21094c0.87312 1.7301 2.3891 2.9326 3.4609 4.4473 0.87084 1.7348 1.6283 3.4622 2.4922 5.1992 0.10623-0.10652 0.20899-0.21875 0.20899-0.21875 1.5245-1.0793 2.2812-2.8124 2.2812-5.418-0.6537-0.76432-0.75567-1.5173-1.3008-2.2793-0.64678-1.0816-2.0537-1.6237-2.9199-2.4922z" fill="#00758f"/>
</svg>
