<?xml version="1.0" encoding="UTF-8"?>
<svg fill="none" version="1.1" viewBox="0 0 900 900" xmlns="http://www.w3.org/2000/svg">
 <path d="m504.91 750h334.57c10.627 1e-3 21.066-2.771 30.269-8.037 9.203-5.267 16.844-12.842 22.155-21.964 5.311-9.123 8.105-19.47 8.1-30.002s-2.807-20.877-8.127-29.995l-224.69-385.71c-5.311-9.12-12.95-16.694-22.151-21.96-9.201-5.265-19.638-8.038-30.263-8.038-10.624 0-21.062 2.773-30.262 8.038-9.201 5.266-16.841 12.84-22.151 21.96l-57.452 98.69-112.33-192.99c-5.315-9.119-12.958-16.692-22.161-21.957-9.204-5.264-19.643-8.036-30.269-8.036s-21.065 2.772-30.268 8.036c-9.204 5.265-16.847 12.838-22.162 21.957l-279.59 480.01c-5.3191 9.118-8.1219 19.463-8.1265 29.995-0.0046236 10.532 2.7891 20.879 8.1001 30.002 5.311 9.122 12.952 16.697 22.155 21.964 9.2026 5.266 19.642 8.038 30.269 8.037h210.01c83.21 0 144.57-36.225 186.8-106.9l102.51-175.96 54.908-94.166 164.79 282.86h-219.7l-54.941 94.166zm-237.79-94.263-146.56-0.033 219.7-377.12 109.62 188.56-73.396 126.03c-28.041 45.855-59.897 62.562-109.36 62.562z" fill="#00DC82"/>
</svg>
