<svg version="1.1" viewbox="0 0 48 48" width="48" height="48" xmlns="http://www.w3.org/2000/svg" xmlns:svg="http://www.w3.org/2000/svg">
  <path
     d="m 29.490196,0 c 0,0.08470588 0,0.16941176 0,0.25882353 0,3.03999987 -2.464313,5.50352957 -5.503529,5.50352957 -3.04,0 -5.50353,-2.464314 -5.50353,-5.50352957 v 0 c 0,-0.0894118 0,-0.17411765 0,-0.25882353 L 0,0 V 48 H 48 V 0 Z"
     fill="#654ff0" />
  <path
     d="m 11.149804,25.867451 h 3.181176 l 2.171765,11.566275 h 0.03921 l 2.610197,-11.566275 h 2.975686 l 2.357647,11.708235 h 0.04628 l 2.475293,-11.708235 h 3.12 L 26.07294,42.862745 h -3.156862 l -2.33804,-11.566274 h -0.06118 l -2.502745,11.566274 h -3.215687 z m 22.563922,0 h 5.014902 l 4.98039,16.995294 h -3.281566 l -1.083138,-3.78196 h -5.712942 l -0.836076,3.78196 h -3.19608 z m 1.909019,4.189019 -1.387449,6.235296 h 4.31843 L 36.960785,30.05647 Z"
     fill="#ffffff" />
</svg>
