<?xml version="1.0" encoding="UTF-8" standalone="no"?>
<!-- Created with Inkscape (http://www.inkscape.org/) -->

<svg
   width="826.49738"
   height="482.45215"
   viewBox="0 0 215.23369 125.63858"
   version="1.1"
   id="svg1"
   xml:space="preserve"
   xmlns="http://www.w3.org/2000/svg"
   xmlns:svg="http://www.w3.org/2000/svg"><defs
     id="defs1"><rect
       x="7205.5234"
       y="35.565529"
       width="262.46201"
       height="120.46619"
       id="rect115" /><rect
       x="7205.5234"
       y="35.565529"
       width="262.46201"
       height="120.46619"
       id="rect136" /></defs><g
     id="g134"
     style="display:inline"
     transform="translate(-1897.7723,-107.11501)"><text
       xml:space="preserve"
       id="text131"
       style="font-style:normal;font-variant:normal;font-weight:bold;font-stretch:normal;font-size:106.002px;font-family:'Open Sans';-inkscape-font-specification:'Open Sans Bold';letter-spacing:38.8192px;white-space:pre;shape-inside:url(#rect136);display:none;fill:none;fill-opacity:1;stroke:#e8363c;stroke-width:0.776385;stroke-dasharray:none;stroke-opacity:1"
       transform="matrix(0.83855521,0,0,0.83855521,-4145.4492,223.30796)"><tspan
         x="7205.5234"
         y="132.01435"
         id="tspan1">500</tspan></text></g><g
     id="g10"
     style="display:inline"
     transform="translate(-1897.7723,-107.11501)"><rect
       style="display:none;fill:#202023;fill-opacity:1;stroke-width:0.212817"
       id="rect7-35"
       width="215.23369"
       height="125.63858"
       x="1897.7722"
       y="107.11501" /><g
       id="g115"
       style="display:inline;fill:none;fill-opacity:1;stroke:#f5f5f5;stroke-width:0.260417;stroke-dasharray:none;stroke-opacity:1"
       transform="translate(-0.42933283,-0.22225339)"><path
         d="m 2054.4393,160.18728 c -0.089,0.002 -0.183,0.008 -0.2518,0.0214 -0.1968,3.09703 -0.2723,6.20047 -0.2924,9.30328 -0.026,5.06736 0.038,10.13618 0.2924,15.19776 0.2343,0.0246 0.6365,-0.007 0.8072,-0.18616 0.3696,-0.49141 0.242,-1.15796 0.474,-1.70492 0.1312,-0.49309 0.664,-0.296 0.7162,-0.47658 0.134,-3.85826 0.7249,-7.6808 0.9654,-11.53157 0.1633,-2.80902 0.2088,-5.67298 -0.5087,-8.41268 -0.2896,-0.27562 -0.7459,-0.10177 -1.062,-0.32959 -0.3029,-0.24784 -0.2589,-0.68963 -0.3443,-1.03608 -0.056,-0.33679 -0.1796,-0.77849 -0.5737,-0.83923 v 10e-4 c -0.049,-0.006 -0.1332,-0.009 -0.2223,-0.007 z"
         style="display:inline;fill:none;fill-opacity:1;stroke:#f5f5f5;stroke-width:0.260417;stroke-dasharray:none;stroke-opacity:1"
         id="path108" /><path
         d="m 1957.1966,160.18778 c -0.089,-0.002 -0.1735,7.3e-4 -0.2223,0.007 v -0.001 c -0.3942,0.0606 -0.5178,0.50244 -0.5737,0.83923 -0.085,0.34644 -0.042,0.78825 -0.3444,1.03607 -0.3161,0.22781 -0.7723,0.054 -1.062,0.32959 -0.7175,2.73971 -0.6704,5.60367 -0.5071,8.41268 0.2404,3.85077 0.8298,7.67332 0.9638,11.53158 0.052,0.18061 0.586,-0.017 0.7172,0.47658 0.2321,0.54696 0.1049,1.21352 0.4746,1.70492 0.1707,0.17929 0.5713,0.2107 0.8056,0.18615 0.2543,-5.06158 0.3191,-10.13039 0.293,-15.19775 -0.02,-3.10281 -0.096,-6.20574 -0.293,-9.30278 -0.069,-0.0133 -0.1626,-0.0203 -0.2517,-0.0224 z"
         style="display:inline;fill:none;fill-opacity:1;stroke:#f5f5f5;stroke-width:0.260417;stroke-dasharray:none;stroke-opacity:1"
         id="path109" /><path
         d="m 1958.1879,156.68386 c -0.3665,0.068 -0.6517,0.37322 -0.7396,0.72988 -0.2588,0.6553 -0.3963,1.34852 -0.5244,2.03908 0.5071,-0.26652 0.5764,-0.15273 1.0951,0.01 0.1565,0.0561 0.1865,0.23187 0.1643,0.37537 0.3657,5.6284 0.3549,11.27262 0.2777,16.90979 -0.046,2.91839 -0.1333,5.83615 -0.2975,8.75041 -0.6159,0.0957 -0.7615,0.19631 -1.3423,-0.12106 -0.1397,-0.12963 -0.091,0.015 -0.079,0.13326 0.047,0.49935 0.1056,0.99687 0.1653,1.49486 0.349,0.35277 0.5743,0.86823 1.094,0.99538 0.3031,0.055 0.8647,-0.13634 1.1515,-0.22227 0.6532,-4.84608 0.8911,-9.59388 0.8952,-14.49076 0.025,-5.4711 -0.1878,-10.8004 -0.8997,-16.2201 -0.2069,-0.13437 -0.7041,-0.40701 -0.9608,-0.38248 z"
         style="display:inline;fill:none;fill-opacity:1;stroke:#f5f5f5;stroke-width:0.260417;stroke-dasharray:none;stroke-opacity:1"
         id="path111" /><path
         d="m 2053.3971,156.68284 c -0.2669,0.0103 -0.7155,0.25797 -0.9094,0.38401 -0.7119,5.41968 -0.924,10.74849 -0.8993,16.21959 0,4.89688 0.242,9.64467 0.8952,14.49076 0.2869,0.0858 0.849,0.27718 1.1521,0.22227 0.5197,-0.12717 0.7434,-0.64261 1.0925,-0.99538 0.06,-0.498 0.1189,-0.99552 0.1663,-1.49485 0.011,-0.11789 0.059,-0.26286 -0.08,-0.13326 -0.5808,0.31743 -0.7243,0.21691 -1.3402,0.12105 -0.1643,-2.91425 -0.2516,-5.832 -0.2975,-8.75041 -0.077,-5.63717 -0.089,-11.28139 0.2767,-16.90979 -0.022,-0.14346 0.01,-0.31919 0.1637,-0.37536 0.5188,-0.16148 0.589,-0.27535 1.0961,-0.01 -0.1281,-0.69057 -0.2671,-1.38378 -0.5259,-2.03908 -0.088,-0.35666 -0.3726,-0.66179 -0.739,-0.72988 v 0.001 c -0.016,-0.002 -0.033,-0.002 -0.051,-0.001 z"
         style="display:inline;fill:none;fill-opacity:1;stroke:#f5f5f5;stroke-width:0.260417;stroke-dasharray:none;stroke-opacity:1"
         id="path112" /><path
         d="m 2053.3971,156.68284 c 0.018,-6.9e-4 0.035,-5.1e-4 0.051,0.001 v -0.001 c 0.3664,0.0681 0.6511,0.37322 0.739,0.72988 0.2588,0.6553 0.3978,1.34851 0.5259,2.03908 -0.5071,-0.26568 -0.5773,-0.15181 -1.0961,0.01 -0.1565,0.0562 -0.1859,0.2319 -0.1637,0.37536 -0.3656,5.6284 -0.3539,11.27262 -0.2767,16.90979 0.046,2.91841 0.1332,5.83616 0.2975,8.75041 0.6159,0.0959 0.7594,0.19638 1.3402,-0.12105 0.1395,-0.1296 0.092,0.0154 0.08,0.13326 -0.047,0.49933 -0.1066,0.99685 -0.1663,1.49485 -0.3491,0.35277 -0.5728,0.86821 -1.0925,0.99538 -0.3031,0.0549 -0.8652,-0.13642 -1.1521,-0.22227 -0.6532,-4.84609 -0.8913,-9.59388 -0.8952,-14.49076 -0.025,-5.4711 0.1874,-10.79991 0.8993,-16.21959 0.1939,-0.12604 0.6425,-0.3737 0.9094,-0.38401 z"
         style="display:inline;fill:none;fill-opacity:1;stroke:#f5f5f5;stroke-width:0.260417;stroke-dasharray:none;stroke-opacity:1"
         id="path113" /><path
         d="m 1967.3604,144.46869 c -3.3493,1.26959 -5.0917,7.05636 -5.4835,10.24373 -0.9559,0 -1.9382,-0.004 -2.8829,0.006 -0.1171,0.22909 -0.2189,0.54335 -0.3158,0.88755 0.456,0.11978 0.863,0.41496 1.2553,0.66935 0.5721,4.31757 1.0134,8.65664 1.1652,13.01168 0.283,6.29708 -0.2533,12.601 -1.0996,18.83698 -0.035,0.24247 -7e-4,0.56503 -0.2594,0.69885 -0.3532,0.13475 -1.1239,0.25171 -1.5045,0.30212 0.1122,0.3704 0.3359,0.71829 0.4933,0.99894 0.6303,0.0114 1.1027,0.26805 1.1027,0.26805 0,0 2.5824,8.04341 8.6228,12.87537 5.8821,4.70539 3.6627,6.29062 8.9452,18.58571 1.6666,2.10306 7.3169,7.32809 10.8907,9.79919 2.3603,0.72153 4.9519,1.34266 7.8257,1.16171 4.9256,0.0133 -1.4756,-0.2102 9.7031,-0.2121 11.1787,0.002 4.7775,0.2255 9.703,0.2121 2.8739,0.18099 5.4639,-0.44018 7.8242,-1.16171 3.5738,-2.4711 9.2241,-7.69613 10.8908,-9.79919 5.2825,-12.29508 3.064,-13.88032 8.9462,-18.58571 6.0403,-4.83196 8.6217,-12.87537 8.6217,-12.87537 0,0 0.4735,-0.25692 1.1037,-0.26805 0.1575,-0.28065 0.3801,-0.62854 0.4924,-0.99894 -0.3807,-0.0504 -1.1514,-0.16739 -1.5045,-0.30212 -0.2589,-0.1338 -0.2233,-0.45638 -0.2584,-0.69885 -0.8464,-6.23599 -1.3826,-12.5399 -1.0997,-18.83698 0.1518,-4.35504 0.5932,-8.69411 1.1653,-13.01168 0.3923,-0.25439 0.7983,-0.54967 1.2543,-0.66935 -0.097,-0.3442 -0.1988,-0.65846 -0.3159,-0.88755 -0.9447,-0.009 -1.9264,-0.006 -2.8824,-0.006 -0.3918,-3.18737 -2.1332,-8.97414 -5.4825,-10.24373 0.635,2.60079 0.9021,3.27222 1.1973,4.9413 0.3099,1.75165 0.8733,3.78337 0.5977,5.30243 -1.2438,5.53251 -1.1658,11.38947 -1.3977,17.05221 -0.057,7.65365 0.2566,15.2787 1.4409,18.33343 -1.2837,5.30889 -10.0606,10.52828 -12.1475,15.13825 -2.6237,5.79587 -3.3154,11.14413 -4.9245,13.19224 -2.135,2.65459 -4.9782,5.88995 -8.0317,7.10805 -2.2144,0.0533 -4.9145,-0.50437 -7.1005,-0.97656 -2.7402,0.008 -5.3222,0.0422 -8.0922,0.0473 -2.7701,-0.006 -5.352,-0.0386 -8.0923,-0.0473 -2.186,0.47219 -4.8866,1.02986 -7.1009,0.97656 -3.0535,-1.2181 -5.8967,-4.45346 -8.0317,-7.10805 -1.6091,-2.04811 -2.3003,-7.39637 -4.924,-13.19224 -2.0869,-4.60997 -10.8654,-9.82936 -12.1491,-15.13825 1.1843,-3.05473 1.4988,-10.67978 1.442,-18.33343 -0.232,-5.66274 -0.1549,-11.5197 -1.3987,-17.05221 -0.2756,-1.51906 0.2878,-3.55078 0.5976,-5.30243 0.2952,-1.66908 0.5639,-2.34051 1.1988,-4.9413 z"
         style="display:inline;fill:none;fill-opacity:1;stroke:#f5f5f5;stroke-width:0.260417;stroke-dasharray:none;stroke-opacity:1"
         id="path114" /><path
         d="m 2005.0954,107.48444 c -7.2642,0.39344 -14.5487,2.25402 -20.7936,6.06384 -3.8569,2.36683 -7.3068,5.62109 -9.2708,9.74986 -2.2391,4.54975 -3.0694,9.60302 -3.9784,14.54366 -0.8279,4.51821 -2.0609,8.95862 -2.6678,13.51623 -0.1836,1.3185 -0.1751,2.66427 0.1048,3.96881 0.522,2.93354 0.762,5.86842 0.913,8.84501 0.1999,4.20439 0.276,8.44628 0.2426,12.67039 -0.057,3.97464 -0.2497,7.91518 -0.94,11.8393 -0.154,0.66476 -0.2467,1.38584 0.072,2.02026 0.4081,0.84529 1.0283,1.56809 1.6042,2.30255 1.8279,2.18034 4.0271,4.00564 5.9799,6.06842 1.822,1.85604 3.4436,3.96975 4.3777,6.41836 1.4072,3.31914 2.2154,6.83214 3.5345,10.19185 0.8041,1.68657 2.1616,3.01248 3.4154,4.36503 1.0527,1.06303 2.2438,1.99232 3.5543,2.71709 2.7441,-0.097 5.3642,-1.00514 8.1116,-0.92418 3.2658,0.006 6.5317,0.0214 9.7976,0.01 1.8743,0.002 3.7511,0.0168 5.5725,0.15665 1.8984,0.1972 3.7585,0.72229 5.6753,0.76905 2.6975,-1.55328 4.8891,-3.87388 6.6025,-6.44837 1.0223,-1.73419 1.3763,-3.74652 2.0477,-5.62235 0.5526,-1.71852 1.0839,-3.39565 1.7827,-5.06134 0.5497,-1.31539 1.2583,-2.71869 2.1444,-3.91694 1.4644,-2.01096 3.3376,-3.67104 5.1005,-5.41076 1.7235,-1.67772 3.4622,-3.3934 4.7211,-5.4596 0.3601,-0.70399 0.3047,-1.51756 0.1129,-2.25982 -0.9071,-4.9067 -0.8768,-9.91772 -0.9318,-14.92971 0.029,-5.13329 0.1934,-10.25556 0.7238,-15.3361 0.2823,-2.42663 0.9791,-4.87583 0.505,-7.32625 -0.6772,-4.76458 -1.9955,-9.40611 -2.805,-14.14694 -0.8557,-4.67109 -1.7314,-9.42708 -3.8681,-13.71256 -1.4677,-2.94593 -3.6379,-5.51956 -6.2399,-7.52869 -5.0448,-3.98435 -11.2412,-6.2555 -17.513,-7.41628 -2.534,-0.46864 -5.1098,-0.72513 -7.6879,-0.71614 z"
         style="display:inline;fill:none;fill-opacity:1;stroke:#f5f5f5;stroke-width:0.260417;stroke-dasharray:none;stroke-opacity:1"
         id="path115" /></g><text
       xml:space="preserve"
       id="text115"
       style="font-style:normal;font-variant:normal;font-weight:bold;font-stretch:normal;font-size:106.002px;font-family:'Open Sans';-inkscape-font-specification:'Open Sans Bold';letter-spacing:38.8192px;white-space:pre;shape-inside:url(#rect115);display:none;fill:none;fill-opacity:1;stroke:#f5f5f5;stroke-width:0.776385;stroke-dasharray:none;stroke-opacity:1"
       transform="matrix(0.83855521,0,0,0.83855521,-4145.6505,91.025386)"><tspan
         x="7205.5234"
         y="132.01435"
         id="tspan2">404</tspan></text><path
       d="m 7264.3732,116.33144 h -9.1096 v 15.68291 h -15.6311 V 116.33144 H 7207.335 V 105.2033 l 33.1774,-48.860296 h 14.7512 v 47.566326 h 9.1096 z m -24.7407,-12.42211 V 91.073151 q 0,-2.432663 0.1035,-5.900502 0.1553,-3.467839 0.3105,-6.469849 0.1553,-3.053768 0.2588,-4.037185 h -0.414 q -1.9151,4.192462 -4.6066,8.281406 l -13.8713,20.962309 z m 122.0473,-9.730652 q 0,12.163312 -2.5879,20.910552 -2.588,8.69548 -8.4367,13.35377 -5.797,4.60653 -15.4759,4.60653 -13.7161,0 -20.0824,-10.3 -6.3146,-10.3 -6.3146,-28.570852 0,-12.266833 2.5362,-20.962309 2.5879,-8.747235 8.3849,-13.405526 5.797,-4.658291 15.4759,-4.658291 13.6126,0 20.0307,10.299999 6.4698,10.299999 6.4698,28.726127 z m -37.0075,0 q 0,12.939702 2.2256,19.461302 2.2256,6.52161 8.2814,6.52161 5.9523,0 8.2297,-6.46985 2.3291,-6.46985 2.3291,-19.513062 0,-12.991456 -2.3291,-19.513063 -2.2774,-6.573366 -8.2297,-6.573366 -6.0558,0 -8.2814,6.573366 -2.2256,6.521607 -2.2256,19.513063 z m 138.5584,22.152762 h -9.1096 v 15.68291 H 7438.49 v -15.68291 h -32.2975 V 105.2033 l 33.1774,-48.860296 h 14.7512 v 47.566326 h 9.1096 z M 7438.49,103.90933 V 91.073151 q 0,-2.432663 0.1035,-5.900502 0.1553,-3.467839 0.3105,-6.469849 0.1553,-3.053768 0.2588,-4.037185 h -0.414 q -1.9151,4.192462 -4.6066,8.281406 l -13.8713,20.962309 z"
       id="text5"
       style="font-weight:bold;font-size:106.002px;font-family:'Open Sans';-inkscape-font-specification:'Open Sans Bold';letter-spacing:38.8192px;white-space:pre;fill:none;stroke:#f5f5f5;stroke-width:0.776385"
       transform="matrix(0.83855521,0,0,0.83855521,-4145.6505,91.025386)"
       aria-label="404" /></g><g
     id="layer6"
     style="display:inline"
     transform="translate(-1838.7224,-62.090406)" /><g
     id="layer5"
     style="display:inline"
     transform="translate(-1838.7224,-62.090406)" /><g
     id="layer7"
     style="display:inline"
     transform="translate(-1838.7224,-62.090406)" /><g
     id="layer4"
     transform="translate(-1838.7224,-62.090406)" /><g
     id="layer3"
     transform="translate(-1838.7224,-62.090406)" /><g
     id="layer2"
     style="display:inline"
     transform="translate(-1838.7224,-62.090406)" /><g
     id="layer1"
     transform="translate(-1838.7224,-62.090406)" /></svg>
