<svg enable-background="new 0 0 128 128" version="1.1" viewBox="0 0 128 128" xml:space="preserve" xmlns="http://www.w3.org/2000/svg">
  <linearGradient id="SVGID_1_" x1="95.124" x2="26.855" y1="91.805" y2="30.825" gradientUnits="userSpaceOnUse">
  	<stop stop-color="#5391FE" offset="0"/>
  	<stop stop-color="#3E6DBF" offset="1"/>
  </linearGradient>
  <path d="m9.491 109c-1.62 0-3.021-0.638-3.944-1.798-0.944-1.185-1.268-2.814-0.889-4.47l17.834-77.911c0.747-3.264 3.884-5.821 7.142-5.821h88.866c1.62 0 3.021 0.638 3.945 1.798 0.944 1.184 1.268 2.814 0.889 4.47l-17.834 77.911c-0.747 3.264-3.884 5.822-7.143 5.822h-88.866z" clip-rule="evenodd" fill="url(#SVGID_1_)" fill-rule="evenodd"/>
  <linearGradient id="SVGID_2_" x1="26.178" x2="93.748" y1="30.015" y2="90.738" gradientUnits="userSpaceOnUse">
  	<stop stop-color="#5391FE" offset="0"/>
  	<stop stop-color="#3E6DBF" offset="1"/>
  </linearGradient>
  <g clip-rule="evenodd" fill-rule="evenodd">
    <path d="M29.634,20H118.5c2.769,0,4.496,2.259,3.858,5.045  l-17.834,77.911c-0.638,2.786-3.399,5.045-6.168,5.045H9.491c-2.769,0-4.496-2.258-3.858-5.045l17.834-77.911  C24.104,22.259,26.866,20,29.634,20z" fill="url(#SVGID_2_)"/>
    <path d="m64.165 87.558h21.613c2.513 0 4.55 2.125 4.55 4.746s-2.037 4.747-4.55 4.747h-21.613c-2.513 0-4.55-2.125-4.55-4.747 0-2.621 2.037-4.746 4.55-4.746z" fill="#2C5591"/>
    <path d="m78.184 66.455c-0.372 0.749-1.144 1.575-2.509 2.534l-40.113 28.809c-2.19 1.591-5.334 1.001-7.021-1.319s-1.28-5.49 0.91-7.082l36.173-26.194v-0.538l-22.728-24.178c-1.854-1.972-1.661-5.161 0.431-7.124 2.092-1.962 5.29-1.954 7.144 0.018l27.271 29.012c1.548 1.647 1.663 4.141 0.442 6.062z" fill="#2C5591"/>
    <path d="m77.184 65.455c-0.372 0.749-1.144 1.575-2.509 2.534l-40.113 28.809c-2.19 1.591-5.334 1.001-7.021-1.319s-1.28-5.49 0.91-7.082l36.173-26.194v-0.538l-22.728-24.178c-1.854-1.972-1.661-5.161 0.431-7.124 2.092-1.962 5.29-1.954 7.144 0.018l27.271 29.012c1.548 1.647 1.663 4.141 0.442 6.062z" fill="#fff"/>
    <path d="m63.55 87h21.613c2.513 0 4.55 2.015 4.55 4.5s-2.037 4.5-4.55 4.5h-21.613c-2.513 0-4.55-2.015-4.55-4.5s2.037-4.5 4.55-4.5z" fill="#fff"/>
  </g>
</svg>
