<svg version="1.1" id="Layer_1" width="113.333" height="113.331" viewBox="0 0 113.333 113.331" enable-background="new 0 0 115.333 114" xml:space="preserve" xmlns="http://www.w3.org/2000/svg">
  <path style="fill:#e6522c;fill-opacity:1" id="path4486" d="M 56.667,0 C 25.372,0 0,25.369 0,56.665 c 0,31.295 25.372,56.666 56.667,56.666 31.295,0 56.666,-25.371 56.666,-56.666 C 113.333,25.369 87.961,0 56.667,0 Z m 0,106.055 c -8.904,0 -16.123,-5.948 -16.123,-13.283 H 72.79 c 0,7.334 -7.219,13.283 -16.123,13.283 z M 83.297,88.373 H 30.034 v -9.658 h 53.264 v 9.658 z M 83.106,73.744 H 30.186 C 30.01,73.541 29.83,73.341 29.66,73.135 24.208,66.515 22.924,63.059 21.677,59.537 c -0.021,-0.116 6.611,1.355 11.314,2.413 0,0 2.42,0.56 5.958,1.205 -3.397,-3.982 -5.414,-9.044 -5.414,-14.218 0,-11.359 8.712,-21.285 5.569,-29.308 3.059,0.249 6.331,6.456 6.552,16.161 3.252,-4.494 4.613,-12.701 4.613,-17.733 0,-5.21 3.433,-11.262 6.867,-11.469 -3.061,5.045 0.793,9.37 4.219,20.099 1.285,4.03 1.121,10.812 2.113,15.113 C 63.797,32.867 65.333,19.833 71,15.333 68.5,21 71.37,28.091 73.333,31.5 76.5,37 78.42,41.167 78.42,49.048 c 0,5.284 -1.951,10.259 -5.242,14.148 3.742,-0.702 6.326,-1.335 6.326,-1.335 L 91.656,59.49 c 10e-4,-0.001 -1.765,7.261 -8.55,14.254 z" />
</svg>
